<?xml version="1.0" encoding="utf-8"?>
<!-- Generator: Adobe Illustrator 16.0.0, SVG Export Plug-In . SVG Version: 6.00 Build 0)  -->
<!DOCTYPE svg PUBLIC "-//W3C//DTD SVG 1.1//EN" "http://www.w3.org/Graphics/SVG/1.1/DTD/svg11.dtd">
<svg version="1.1" id="图层_1" xmlns="http://www.w3.org/2000/svg" xmlns:xlink="http://www.w3.org/1999/xlink" x="0px" y="0px" width="60px" height="60px" viewBox="0 0 60 60" enable-background="new 0 0 60 60" xml:space="preserve" fill="#00000B">
<circle fill="#FF6600" cx="30" cy="30" r="30" />
<ellipse cx="21" cy="26.75" rx="0" ry="0" fill="#00000B" stroke="none" stroke-opacity="0" />
<path d="M213.717,141.664L186.01,112.06l20.571,39.877 M228.884,138.629l-5.045-49.121l-5.044,49.121 c1.611-0.603,3.302-0.925,5.044-0.925C225.583,137.704,227.272,138.026,228.884,138.629zM241.097,151.938l20.57-39.879l-27.706,29.604 C236.905,144.155,239.366,147.698,241.097,151.938zM203.831,166.503c0-2.507,0.224-4.942,0.642-7.261l-34.131,7.263 l34.132,7.26C204.055,171.445,203.831,169.011,203.831,166.503zM277.336,166.503l-34.133-7.262c0.42,2.32,0.643,4.753,0.643,7.262 s-0.223,4.941-0.643,7.262L277.336,166.503zM233.959,191.339l27.708,29.607l-20.571-39.878 C239.365,185.308,236.903,188.85,233.959,191.339zM223.839,142.812c-9.091,0-16.461,10.607-16.461,23.691 s7.37,23.691,16.461,23.691c9.092,0,16.461-10.607,16.461-23.691S232.931,142.812,223.839,142.812zM206.582,181.07l-20.57,39.879l27.707-29.609 C210.775,188.851,208.313,185.308,206.582,181.07zM218.794,194.373l5.045,49.126l5.046-49.126 c-1.612,0.604-3.302,0.927-5.046,0.927C222.096,195.299,220.405,194.977,218.794,194.373z" transform="matrix(0.317757,0,0,0.188465,-41.38824,-1.141227)" fill="#FFFFFF" stroke="none" stroke-opacity="0" />

</svg>
